<?xml version="1.0" standalone="no"?>
<!DOCTYPE svg PUBLIC "-//W3C//DTD SVG 20010904//EN"
 "http://www.w3.org/TR/2001/REC-SVG-20010904/DTD/svg10.dtd">
<svg version="1.0" xmlns="http://www.w3.org/2000/svg"
 width="200.000000pt" height="200.000000pt" viewBox="0 0 200.000000 200.000000"
 preserveAspectRatio="xMidYMid meet">
<metadata>
Created by potrace 1.11, written by Peter Selinger 2001-2013
</metadata>
<g transform="translate(0.000000,200.000000) scale(0.100000,-0.100000)"
fill="#000000" stroke="none">
<path d="M0 1000 l0 -1000 1000 0 1000 0 0 1000 0 1000 -1000 0 -1000 0 0
-1000z m1820 735 c63 -60 62 -156 0 -209 -88 -73 -217 -20 -228 93 -5 57 15
99 64 132 44 30 124 22 164 -16z m-915 -793 c49 -73 92 -131 97 -130 5 2 100
140 213 307 l205 304 0 -466 0 -467 -70 0 -70 0 0 237 0 237 -135 -200 c-75
-109 -140 -199 -145 -199 -5 0 -70 90 -145 200 l-135 199 0 -237 0 -237 -70 0
-70 0 0 467 0 466 118 -174 c65 -96 158 -234 207 -307z"/>
<path d="M1659 1701 c-68 -69 -5 -187 89 -166 87 19 108 141 31 180 -45 24
-87 19 -120 -14z"/>
</g>
</svg>
